<?xml version="1.0" standalone="no"?><!DOCTYPE svg PUBLIC "-//W3C//DTD SVG 1.1//EN" "http://www.w3.org/Graphics/SVG/1.1/DTD/svg11.dtd"><svg t="1551145224212" class="icon" style="" viewBox="0 0 1024 1024" version="1.1" xmlns="http://www.w3.org/2000/svg" p-id="1656" xmlns:xlink="http://www.w3.org/1999/xlink" width="60" height="60"><defs><style type="text/css"></style></defs><path d="M882.052081 68.305689c-8.755408-5.653767-19.784602-6.478552-29.284977-2.189875L355.301122 290.717198 159.328775 290.717198c-16.954137 0-30.699186 13.745049-30.699186 30.699186l0 382.657166c0 16.954137 13.745049 30.699186 30.699186 30.699186l195.571211 0 498.009358 221.807758c3.991917 1.778506 8.247848 2.656503 12.488429 2.656503 5.847172 0 11.665691-1.670036 16.720823-4.951779 8.719592-5.66093 13.980409-15.35164 13.980409-25.747407L896.099005 94.095052C896.097982 83.671655 890.808512 73.960479 882.052081 68.305689zM331.233983 673.374364l-141.206022 0L190.027961 352.11557l141.206022 0L331.233983 673.374364zM834.69961 881.257995l-442.068278-196.891276L392.631332 341.228615l442.068278-199.588711L834.69961 881.257995z" p-id="1657" fill="#ffffff"></path></svg>